<?xml version="1.0" encoding="utf-8"?>
<!-- Generator: Adobe Illustrator 23.0.4, SVG Export Plug-In . SVG Version: 6.00 Build 0)  -->
<!DOCTYPE svg PUBLIC "-//W3C//DTD SVG 1.0//EN" "http://www.w3.org/TR/2001/REC-SVG-20010904/DTD/svg10.dtd" [ <!ENTITY ns_extend "http://ns.adobe.com/Extensibility/1.0/">
<!ENTITY ns_ai "http://ns.adobe.com/AdobeIllustrator/10.0/">
<!ENTITY ns_graphs "http://ns.adobe.com/Graphs/1.0/">
<!ENTITY ns_vars "http://ns.adobe.com/Variables/1.0/">
<!ENTITY ns_imrep "http://ns.adobe.com/ImageReplacement/1.0/">
<!ENTITY ns_sfw "http://ns.adobe.com/SaveForWeb/1.0/">
<!ENTITY ns_custom "http://ns.adobe.com/GenericCustomNamespace/1.0/">
<!ENTITY ns_adobe_xpath "http://ns.adobe.com/XPath/1.0/">
]>
<svg
  version="1.0"
  id="iPKO-logo-svg"
  xmlns:x="&ns_extend;"
  xmlns:i="&ns_ai;"
  xmlns:graph="&ns_graphs;"
  xmlns="http://www.w3.org/2000/svg"
  xmlns:xlink="http://www.w3.org/1999/xlink"
  x="0px"
  y="0px"
  viewBox="0 0 56 48"
  enable-background="new 0 0 56 48"
  xml:space="preserve"
>
  <metadata>
    <sfw xmlns="&ns_sfw;">
      <slices></slices>
      <sliceSourceBounds
        bottomLeftOrigin="true"
        height="48"
        width="56"
        x="9.542"
        y="4.042"
      ></sliceSourceBounds>
    </sfw>
  </metadata>
  <rect
    id="bg"
    x="0.042"
    y="-0.042"
    fill="#FFFFFF"
    fill-opacity="0"
    width="56"
    height="48"
  />
  <linearGradient
    id="SVGID_1_"
    gradientUnits="userSpaceOnUse"
    x1="4.9777"
    y1="20.9248"
    x2="4.9777"
    y2="33.6791"
  >
    <stop offset="0" style="stop-color:#004C9A" />
    <stop offset="0.143" style="stop-color:#004994" />
    <stop offset="0.33" style="stop-color:#013F84" />
    <stop offset="0.542" style="stop-color:#033069" />
    <stop offset="0.771" style="stop-color:#051A43" />
    <stop offset="1" style="stop-color:#070016" />
  </linearGradient>
  <path
    fill="url(#SVGID_1_)"
    d="M7.226,20.834c-2.571,0-4.541,1.697-4.541,3.807l0,0v9.037h4.587L7.226,20.834z"
  />
  <ellipse
    id="Ellipse_4_1_"
    fill="#E4202C"
    cx="5.07"
    cy="17.028"
    rx="3.028"
    ry="3.028"
  />
  <path
    id="Path_7_1_"
    d="M23.556,21.019c0,3.441-2.385,6.009-6.468,6.009c-0.708,0.006-1.414-0.056-2.11-0.184v6.929h-2.202V19.321
	c0-3.119,1.835-3.67,4.357-3.67C21.583,15.651,23.556,17.945,23.556,21.019z M17.272,16.937c-1.559,0-2.248,0.551-2.248,2.202v6.376
	c0.571,0.13,1.156,0.191,1.743,0.184c3.119,0,4.496-2.019,4.496-4.679C21.263,18.723,20.116,16.937,17.272,16.937z"
  />
  <path
    id="Path_8_1_"
    d="M28.326,25.055v8.67h-2.156V15.926h2.156v8.349l5.734-6.697c1.101-1.193,2.156-1.697,3.214-1.697
	c0.277,0.005,0.554,0.036,0.826,0.091L32,22.853c-0.606,0.764-1.443,1.311-2.385,1.559v0.504c1.056,0.32,1.986,0.961,2.661,1.835
	l6.239,6.972c-0.264,0.098-0.544,0.144-0.826,0.138c-1.3-0.04-2.513-0.662-3.304-1.695L28.326,25.055z"
  />
  <path
    id="Path_9_1_"
    d="M46.4,34c-4.449,0-7.706-3.578-7.706-9.357c0-5.23,3.257-9.129,7.706-9.129s7.661,3.945,7.661,9.129
	C54.061,30.33,50.849,34,46.4,34z M46.308,16.981c-3.165,0-5.229,3.214-5.229,7.429c0,4.909,2.064,8.165,5.367,8.165
	c3.165,0,5.229-3.257,5.229-7.661C51.721,20.239,49.657,16.981,46.308,16.981z"
  />
</svg>
