<?xml version="1.0" encoding="utf-8"?>
<!-- Generator: Adobe Illustrator 16.0.2, SVG Export Plug-In . SVG Version: 6.00 Build 0)  -->
<!DOCTYPE svg PUBLIC "-//W3C//DTD SVG 1.1//EN" "http://www.w3.org/Graphics/SVG/1.1/DTD/svg11.dtd">
<svg version="1.1" id="Layer_1" xmlns="http://www.w3.org/2000/svg" xmlns:xlink="http://www.w3.org/1999/xlink" x="0px" y="0px"
	 width="399.412px" height="387.223px" viewBox="284.294 78.388 399.412 387.223"
	 enable-background="new 284.294 78.388 399.412 387.223" xml:space="preserve">
<g id="Navigation_x5F_Download_x5F_Save_x5F_to_x5F_blackred_x5F_pos_x5F_rgb">
	<g id="Download_x5F_Save_x5F_to_1_">
		<rect id="XMLID_1916_" x="204" y="-8" fill="none" width="560" height="560"/>
		<path fill="#FFFFFF" d="M484,325.447c-4.546,0-8.235-3.682-8.235-8.235V86.624c0-4.546,3.689-8.235,8.235-8.235
			s8.235,3.689,8.235,8.235v230.588C492.235,321.766,488.546,325.447,484,325.447z"/>
		<path fill="#FFFFFF" d="M659,465.611H309c-13.621,0-24.706-11.084-24.706-24.705v-74.283c0-13.621,11.085-24.705,24.706-24.705
			h43.235c4.546,0,8.235,3.681,8.235,8.235c0,4.554-3.689,8.235-8.235,8.235H309c-4.537,0-8.235,3.689-8.235,8.234v74.283
			c0,4.546,3.698,8.235,8.235,8.235h350c4.546,0,8.235-3.689,8.235-8.235v-74.283c0-4.545-3.689-8.234-8.235-8.234h-43.235
			c-4.554,0-8.235-3.682-8.235-8.235c0-4.555,3.682-8.235,8.235-8.235H659c13.621,0,24.706,11.084,24.706,24.705v74.283
			C683.706,454.527,672.621,465.611,659,465.611z"/>
		<path fill="#FFFFFF" d="M484,402.975l-96.41-96.411c-3.221-3.22-3.221-8.425,0-11.645c3.22-3.22,8.424-3.22,11.645,0L484,379.685
			l84.766-84.766c3.221-3.22,8.425-3.22,11.645,0c3.221,3.22,3.221,8.425,0,11.645L484,402.975z"/>
	</g>
</g>
<g id="Layer_1_1_">
</g>
</svg>
