<?xml version="1.0" standalone="no"?>
<!DOCTYPE svg PUBLIC "-//W3C//DTD SVG 20010904//EN"
 "http://www.w3.org/TR/2001/REC-SVG-20010904/DTD/svg10.dtd">
<svg version="1.0" xmlns="http://www.w3.org/2000/svg"
 width="18.000000pt" height="18.000000pt" viewBox="0 0 218.000000 218.000000"
 preserveAspectRatio="xMidYMid meet">

<g transform="translate(0.000000,218.000000) scale(0.100000,-0.100000)"
fill="#d40511" stroke="none">
<path d="M320 1775 l0 -95 770 0 770 0 0 95 0 95 -770 0 -770 0 0 -95z"/>
<path d="M320 1095 l0 -95 770 0 770 0 0 95 0 95 -770 0 -770 0 0 -95z"/>
<path d="M320 415 l0 -95 770 0 770 0 0 95 0 95 -770 0 -770 0 0 -95z"/>
</g>
</svg>
