<?xml version="1.0" standalone="no"?>
<!DOCTYPE svg PUBLIC "-//W3C//DTD SVG 20010904//EN"
 "http://www.w3.org/TR/2001/REC-SVG-20010904/DTD/svg10.dtd">
<svg version="1.0" xmlns="http://www.w3.org/2000/svg"
 width="18.000000pt" height="18.000000pt" viewBox="0 0 218.000000 218.000000"
 preserveAspectRatio="xMidYMid meet">

<g transform="translate(0.000000,218.000000) scale(0.100000,-0.100000)"
fill="#d40511" stroke="none">
<path d="M990 1843 c-54 -10 -171 -74 -220 -119 -33 -31 -64 -74 -88 -123 -34
-69 -37 -83 -40 -177 -5 -126 11 -186 70 -274 77 -116 203 -186 353 -197 144
-10 261 33 361 132 70 69 98 118 119 207 38 160 0 302 -111 418 -60 63 -146
111 -232 129 -52 11 -162 13 -212 4z m236 -173 c106 -48 169 -133 180 -246 12
-120 -66 -244 -188 -299 -139 -63 -316 -5 -392 129 -84 146 -30 326 123 409
95 52 173 54 277 7z"/>
<path d="M618 963 c-140 -117 -250 -310 -294 -516 -7 -37 -14 -82 -14 -98 l0
-29 786 0 787 0 -6 68 c-12 131 -89 321 -180 442 -50 67 -166 180 -185 180 -8
0 -32 -16 -55 -35 -22 -19 -44 -35 -49 -35 -4 0 -8 -8 -8 -19 0 -10 24 -37 56
-62 30 -24 78 -73 105 -109 46 -59 128 -212 144 -267 l6 -23 -615 0 -615 0 19
55 c44 128 150 284 238 349 30 22 52 47 52 57 0 11 -4 19 -8 19 -5 0 -27 16
-49 35 -23 19 -45 35 -50 35 -4 0 -34 -21 -65 -47z"/>
</g>
</svg>
