<?xml version="1.0" standalone="no"?>
<!DOCTYPE svg PUBLIC "-//W3C//DTD SVG 20010904//EN"
 "http://www.w3.org/TR/2001/REC-SVG-20010904/DTD/svg10.dtd">
<svg version="1.0" xmlns="http://www.w3.org/2000/svg"
 width="18.000000pt" height="18.000000pt" viewBox="0 0 218.000000 218.000000"
 preserveAspectRatio="xMidYMid meet">

<g transform="translate(0.000000,218.000000) scale(0.100000,-0.100000)"
fill="#d40511" stroke="none">
<path d="M753 1866 c-200 -49 -380 -233 -428 -438 -47 -200 8 -393 154 -539
185 -184 436 -228 670 -117 l84 40 263 -263 264 -264 55 55 55 55 -262 262
c-231 231 -261 265 -251 281 105 151 144 319 110 478 -46 216 -224 398 -439
449 -76 18 -204 18 -275 1z m282 -144 c310 -96 413 -516 183 -745 -101 -101
-210 -142 -357 -135 -78 4 -99 9 -163 40 -282 140 -346 511 -126 728 120 118
302 162 463 112z"/>
</g>
</svg>
